<svg xmlns="http://www.w3.org/2000/svg" viewBox="0 0 708 200" width="708" height="200">
	<style>
		tspan { white-space:pre }
		.shp0 { fill: #ed1c24 } 
		.shp1 { opacity: 0.039;fill: #000000;stroke: #ffffff } 
		.shp2 { opacity: 0.078;fill: #000000;stroke: #ffffff } 
		.shp3 { fill: none } 
		.txt4 { font-size: 137px;fill: #000000;font-weight: 400;font-family: "Dhurjati", "Dhurjati" } 
		.txt5 { font-size: 137px;fill: #da1a21;font-weight: 400;font-family: "Dhurjati", "Dhurjati" } 
		.txt6 { font-size: 190px;fill: #ffffff;font-weight: 400;font-family: "Dhurjati", "Dhurjati" } 
	</style>
	<path id="Layer" class="shp0" d="M43 150L43 50L129.6 0L216.2 50L216.2 150L129.6 200L43 150Z" />
	<path id="Layer" class="shp1" d="M43 50L129.6 100L129.6 0L43 50Z" />
	<path id="Layer" class="shp1" d="M43 150L129.6 200L129.6 100L43 150Z" />
	<path id="Layer" class="shp2" d="M129.6 100L216.2 150L216.2 50L129.6 100Z" />
	<path id="Layer" class="shp3" d="M129.6 100L43 50L43 150L129.6 100Z" />
	<path id="Layer" class="shp2" d="M216.2 150L129.6 100L129.6 200L216.2 150Z" />
	<path id="Layer" class="shp2" d="M216.2 50L129.6 0L129.6 100L216.2 50Z" />
	<text id=" " style="transform: matrix(1,0,0,1,749,343)" >
	</text>
	<g id="Layer">
		<text id="NERGIZ " style="transform: matrix(1,0,0,1,237,138.4)" >
			<tspan x="0" y="0" class="txt4">NERGIZ</tspan>
		</text>
		<text id="ER " style="transform: matrix(1,0,0,1,569,137.4)" >
			<tspan x="0" y="0" class="txt5">ER</tspan>
		</text>
		<text id="E " style="opacity: 0.678;transform: matrix(1,0,0,1,95,145)" >
			<tspan x="0" y="0" class="txt6">E</tspan>
		</text>
	</g>
</svg>